<?xml version="1.0" encoding="UTF-8"?>
<svg version="1.1" xmlns="http://www.w3.org/2000/svg" width="680" height="529">
<path d="M0 0 C224.4 0 448.8 0 680 0 C680 174.57 680 349.14 680 529 C455.6 529 231.2 529 0 529 C0 354.43 0 179.86 0 0 Z " fill="#000000" transform="translate(0,0)"/>
<path d="M0 0 C3.02929688 1.54711914 3.02929688 1.54711914 6.21875 3.53515625 C6.79854614 3.89210068 7.37834229 4.2490451 7.97570801 4.61680603 C9.82293686 5.75631123 11.66167185 6.9087021 13.5 8.0625 C15.90391496 9.55716719 18.31105778 11.04658314 20.71875 12.53515625 C21.31817413 12.90681412 21.91759827 13.27847198 22.53518677 13.66139221 C27.87453067 16.95750613 33.30663283 20.07543234 38.76660156 23.16625977 C43.24845477 25.70802958 47.69055517 28.31412364 52.125 30.9375 C53.02371826 31.46891602 53.92243652 32.00033203 54.84838867 32.54785156 C63.03183402 37.40109025 71.17655414 42.31770807 79.3125 47.25 C79.94021301 47.63002167 80.56792603 48.01004333 81.21466064 48.40158081 C82.9943708 49.47961994 84.77280314 50.55973224 86.55078125 51.640625 C87.57856689 52.26485352 88.60635254 52.88908203 89.6652832 53.53222656 C92 55 92 55 93 56 C93.1438629 60.33315059 93.04208618 64.66512361 93 69 C99.98779387 66.54999748 106.99539127 63.62565635 112 58 C115.25387554 49.98973652 114.10597774 40.76291728 113.6875 32.3125 C113.64035785 29.95393438 113.60186369 27.59517914 113.57226562 25.23632812 C113.48137296 19.4849095 113.28309546 13.7449974 113 8 C113.99 8 114.98 8 116 8 C116.33 23.51 116.66 39.02 117 55 C123.77771496 51.09879758 123.77771496 51.09879758 130.55200195 47.19165039 C131.39722412 46.70688232 132.24244629 46.22211426 133.11328125 45.72265625 C133.97735596 45.22515869 134.84143066 44.72766113 135.73168945 44.21508789 C139.91293362 41.97528031 143.17227895 41.87818102 147.8581543 41.88647461 C148.55109589 41.88632858 149.24403748 41.88618256 149.95797729 41.8860321 C152.24675637 41.88672837 154.5354539 41.8945074 156.82421875 41.90234375 C158.41176814 41.90420894 159.99931811 41.90563237 161.58686829 41.90663147 C165.7642272 41.91044866 169.94155131 41.92027214 174.11889648 41.93133545 C178.38199391 41.94156672 182.64509696 41.94613277 186.90820312 41.95117188 C195.27215138 41.96189511 203.63607136 41.97896197 212 42 C212.33 38.7 212.66 35.4 213 32 C214.32 32 215.64 32 217 32 C217 35.63 217 39.26 217 43 C242.41 43 267.82 43 294 43 C294 36.4 294 29.8 294 23 C295.65 23 297.3 23 299 23 C299 29.6 299 36.2 299 43 C318.14 43 337.28 43 357 43 C357 44.32 357 45.64 357 47 C337.86 47 318.72 47 299 47 C299 76.37 299 105.74 299 136 C300.65 136.66 302.3 137.32 304 138 C306.33609644 139.24043031 308.64014723 140.50426499 310.9375 141.8125 C311.94913208 142.3849646 311.94913208 142.3849646 312.98120117 142.96899414 C336.67120135 156.44746757 336.67120135 156.44746757 345 162 C344.67 163.32 344.34 164.64 344 166 C328.54131345 162.73968471 311.47898869 148.37394786 299 141 C299 201.06 299 261.12 299 323 C182.51 323 66.02 323 -54 323 C-54.33 269.54 -54.66 216.08 -55 161 C-63.98065045 166.13180025 -72.94641705 171.27952365 -81.875 176.5 C-82.95652344 177.13164062 -84.03804687 177.76328125 -85.15234375 178.4140625 C-87.76857106 179.94212447 -90.3844538 181.47077259 -93 183 C-93.99 182.34 -94.98 181.68 -96 181 C-94.73808176 177.21424527 -93.59238818 176.89794143 -90.1796875 174.9609375 C-89.17558838 174.38432373 -88.17148926 173.80770996 -87.13696289 173.21362305 C-85.52229126 172.30350464 -85.52229126 172.30350464 -83.875 171.375 C-81.68320238 170.1191724 -79.491796 168.86266172 -77.30078125 167.60546875 C-76.22650879 166.9923584 -75.15223633 166.37924805 -74.04541016 165.74755859 C-70.02341122 163.43960057 -66.03606286 161.07765067 -62.0625 158.6875 C-61.44938965 158.32124512 -60.8362793 157.95499023 -60.20458984 157.57763672 C-57.44640115 155.9981081 -57.44640115 155.9981081 -55 154 C-54.91138273 152.38098764 -54.89311891 150.75808253 -54.90234375 149.13667297 C-54.90556137 148.08378586 -54.90877899 147.03089874 -54.91209412 145.94610596 C-54.92047806 144.78093445 -54.928862 143.61576294 -54.9375 142.4152832 C-54.94694868 139.88682649 -54.956132 137.35836878 -54.96508789 134.82991028 C-54.97141839 133.46759847 -54.97777672 132.10528679 -54.98416138 130.74297523 C-55.0020752 126.53640939 -55.00408574 122.32993487 -55.00170898 118.12333679 C-55.00133983 117.41390012 -55.00097067 116.70446344 -55.00059032 115.97352868 C-54.99927232 113.78769083 -54.99771473 111.60185327 -54.99609375 109.41601562 C-54.98938276 100.35400613 -54.99417938 91.29257057 -55.05126953 82.23071289 C-55.09275989 75.62757172 -55.1024773 69.02524 -55.07515907 62.42201298 C-55.06191602 58.92688842 -55.06476892 55.43344065 -55.10620117 51.93850136 C-55.15207252 48.03558201 -55.12772362 44.13479887 -55.09765625 40.23168945 C-55.12223404 39.0766391 -55.14681183 37.92158875 -55.1721344 36.73153687 C-55.03309372 29.06105977 -55.03309372 29.06105977 -52.0307312 25.97742271 C-49.74471202 24.43102322 -47.49005566 23.18301612 -45 22 C-43.989375 21.40316406 -42.97875 20.80632812 -41.9375 20.19140625 C-40.4834375 19.38509766 -40.4834375 19.38509766 -39 18.5625 C-34.16470505 15.87692458 -29.44174434 13.04742567 -24.75 10.1171875 C-23.64011719 9.43068115 -22.53023438 8.7441748 -21.38671875 8.03686523 C-19.15173222 6.65143782 -16.92491214 5.25273726 -14.70703125 3.84008789 C-13.66933594 3.20063232 -12.63164062 2.56117676 -11.5625 1.90234375 C-10.17224609 1.02823853 -10.17224609 1.02823853 -8.75390625 0.13647461 C-5.25985349 -1.30544167 -3.60548186 -1.06983469 0 0 Z " fill="#FEFEFE" transform="translate(212,90)"/>
<path d="M0 0 C0 4.95 0 9.9 0 15 C-1.65 15 -3.3 15 -5 15 C-5 16.65 -5 18.3 -5 20 C-3.35 20.33 -1.7 20.66 0 21 C0.0809313 23.60478883 0.14045434 26.20706653 0.1875 28.8125 C0.21263672 29.55048828 0.23777344 30.28847656 0.26367188 31.04882812 C0.33834499 36.54974762 0.33834499 36.54974762 -1.51171875 39.01171875 C-2.00285156 39.33785156 -2.49398437 39.66398437 -3 40 C-3.495 38.02 -3.495 38.02 -4 36 C-4 37.98 -4 39.96 -4 42 C-2.68 42 -1.36 42 0 42 C0 43.65 0 45.3 0 47 C-1.98 47 -3.96 47 -6 47 C-6 48.98 -6 50.96 -6 53 C-4.02 53 -2.04 53 0 53 C0 57.95 0 62.9 0 68 C-1.98 68 -3.96 68 -6 68 C-6 70.64 -6 73.28 -6 76 C-4.02 76 -2.04 76 0 76 C0.02526945 82.6752034 0.04283268 89.35039457 0.05493164 96.02563477 C0.05997325 98.29842591 0.06680637 100.5712138 0.07543945 102.84399414 C0.08751261 106.10303551 0.09322987 109.36203417 0.09765625 112.62109375 C0.10281754 113.64400009 0.10797882 114.66690643 0.11329651 115.72080994 C0.11337204 116.66170975 0.11344757 117.60260956 0.11352539 118.57202148 C0.115746 119.40475082 0.11796661 120.23748016 0.12025452 121.09544373 C0 123 0 123 -1 124 C-2.66617115 124.04063832 -4.33388095 124.042721 -6 124 C-6 125.98 -6 127.96 -6 130 C-4.02 130 -2.04 130 0 130 C0 138.58 0 147.16 0 156 C-1.32 155.67 -2.64 155.34 -4 155 C-3.67 155.99 -3.34 156.98 -3 158 C-2.01 158 -1.02 158 0 158 C0 162.95 0 167.9 0 173 C-1.98 173 -3.96 173 -6 173 C-6 173.99 -6 174.98 -6 176 C-7.32 176 -8.64 176 -10 176 C-10 175.34 -10 174.68 -10 174 C-11.98 174 -13.96 174 -16 174 C-16 174.66 -16 175.32 -16 176 C-38.44 176 -60.88 176 -84 176 C-84 172.37 -84 168.74 -84 165 C-82.68 165 -81.36 165 -80 165 C-80 163.02 -80 161.04 -80 159 C-81.32 158.67 -82.64 158.34 -84 158 C-83.67 155.03 -83.34 152.06 -83 149 C-81.68 149 -80.36 149 -79 149 C-79 148.34 -79 147.68 -79 147 C-80.65 147 -82.3 147 -84 147 C-84 141.06 -84 135.12 -84 129 C-83.01 129 -82.02 129 -81 129 C-81 128.34 -81 127.68 -81 127 C-81.99 127 -82.98 127 -84 127 C-84 122.38 -84 117.76 -84 113 C-82.515 112.505 -82.515 112.505 -81 112 C-81 110.35 -81 108.7 -81 107 C-81.99 106.67 -82.98 106.34 -84 106 C-84 104.68 -84 103.36 -84 102 C-83.34 102 -82.68 102 -82 102 C-82.18464366 97.65815798 -82.18464366 97.65815798 -84 94 C-84.04063832 92.33382885 -84.042721 90.66611905 -84 89 C-81.525 88.505 -81.525 88.505 -79 88 C-79 86.35 -79 84.7 -79 83 C-80.65 83 -82.3 83 -84 83 C-84 81.02 -84 79.04 -84 77 C-83.01 76.505 -83.01 76.505 -82 76 C-81.505 75.01 -81.505 75.01 -81 74 C-81.99 74 -82.98 74 -84 74 C-84 69.05 -84 64.1 -84 59 C-82.515 58.505 -82.515 58.505 -81 58 C-80.505 55.03 -80.505 55.03 -80 52 C-81.32 52 -82.64 52 -84 52 C-84 50.68 -84 49.36 -84 48 C-82.02 47.01 -80.04 46.02 -78 45 C-78 45.99 -78 46.98 -78 48 C-76.02 47.505 -76.02 47.505 -74 47 C-74.66 46.67 -75.32 46.34 -76 46 C-75.1875 44.0625 -75.1875 44.0625 -74 42 C-72.515 41.505 -72.515 41.505 -71 41 C-71 42.65 -71 44.3 -71 46 C-69.02 46 -67.04 46 -65 46 C-65 44.02 -65 42.04 -65 40 C-66.485 39.505 -66.485 39.505 -68 39 C-59.738041 33.25968109 -59.738041 33.25968109 -55 34 C-54.896875 33.360625 -54.79375 32.72125 -54.6875 32.0625 C-54.460625 31.381875 -54.23375 30.70125 -54 30 C-53.01 29.67 -52.02 29.34 -51 29 C-50.938125 29.78375 -50.87625 30.5675 -50.8125 31.375 C-50.544375 32.24125 -50.27625 33.1075 -50 34 C-47.52363988 35.37466625 -47.52363988 35.37466625 -45 36 C-45 33.69 -45 31.38 -45 29 C-46.32 28.34 -47.64 27.68 -49 27 C-45.86501708 25.14223235 -43.62528568 24.79859524 -40 25 C-40 24.01 -40 23.02 -40 22 C-37.18290698 20.30469434 -34.34415614 18.64943225 -31.5 17 C-30.70851562 16.52304688 -29.91703125 16.04609375 -29.1015625 15.5546875 C-23.74051709 12.47867784 -20.17915585 11.43310497 -14 12 C-14 10.35 -14 8.7 -14 7 C-12.02 6.01 -10.04 5.02 -8 4 C-7.505 6.475 -7.505 6.475 -7 9 C-5.68 9.33 -4.36 9.66 -3 10 C-2.67 7.69 -2.34 5.38 -2 3 C-2.66 3 -3.32 3 -4 3 C-4 3.99 -4 4.98 -4 6 C-4.66 6 -5.32 6 -6 6 C-5.6875 4.125 -5.6875 4.125 -5 2 C-2 0 -2 0 0 0 Z " fill="#070707" transform="translate(252,227)"/>
<path d="M0 0 C0 80.19 0 160.38 0 243 C-6.27 243.33 -12.54 243.66 -19 244 C-20 243 -20 243 -20.12304783 240.39379025 C-20.12166514 238.63639192 -20.12166514 238.63639192 -20.12025452 236.8434906 C-20.12110894 236.19335135 -20.12196337 235.5432121 -20.12284368 234.87337166 C-20.12450026 232.6791442 -20.11897425 230.48499198 -20.11352539 228.29077148 C-20.11324353 226.72414146 -20.11340123 225.1575113 -20.1139679 223.59088135 C-20.11425592 219.32453623 -20.10835843 215.05821898 -20.10139394 210.79188037 C-20.09516118 206.33822949 -20.09455666 201.88457803 -20.09336853 197.43092346 C-20.09025498 188.99132557 -20.08204128 180.55174056 -20.07201904 172.11214834 C-20.06085863 162.50650556 -20.05534764 152.90086218 -20.05032361 143.29521453 C-20.03985868 123.53013582 -20.02225879 103.76506872 -20 84 C-20.77844269 83.69445694 -21.55688538 83.38891388 -22.35891724 83.07411194 C-24.89776666 82.04157766 -27.17948959 80.85886671 -29.5546875 79.49609375 C-30.4103833 79.00866699 -31.2660791 78.52124023 -32.14770508 78.01904297 C-33.99736327 76.9464366 -35.84080284 75.8630479 -37.6784668 74.77001953 C-41.94868057 72.24250166 -46.06386927 69.87283742 -50.71484375 68.12109375 C-58.55938336 64.9417533 -58.55938336 64.9417533 -61 61 C-62.18742035 56.59902362 -62.43387729 52.35789339 -62.5 47.8125 C-62.51909424 46.65862793 -62.53818848 45.50475586 -62.55786133 44.31591797 C-62.19837969 36.35174999 -62.19837969 36.35174999 -59.32128906 33.10644531 C-56.96237431 31.48489237 -54.57630733 30.24714589 -52 29 C-50.03277687 27.88406926 -48.06940937 26.76132194 -46.109375 25.6328125 C-43.99119057 24.4606326 -41.87134808 23.29144474 -39.75 22.125 C-31.9925529 17.82269718 -24.3193412 13.46838412 -16.8046875 8.75390625 C-13.66596963 6.79111471 -10.49836353 4.88528159 -7.3125 3 C-6.33925781 2.4225 -5.36601562 1.845 -4.36328125 1.25 C-2 0 -2 0 0 0 Z " fill="#000000" transform="translate(325,160)"/>
<path d="M0 0 C0 85.47 0 170.94 0 259 C-7.92 259 -15.84 259 -24 259 C-24 177.82 -24 96.64 -24 13 C-18.72 10.03 -13.44 7.06 -8 4 C-1 0 -1 0 0 0 Z " fill="#000000" transform="translate(352,144)"/>
<path d="M0 0 C15.60404676 8.76826287 30.95456504 17.98527587 46.3125 27.17578125 C47.11896973 27.65805176 47.92543945 28.14032227 48.75634766 28.63720703 C50.32801209 29.58292719 51.89546787 30.53567916 53.45849609 31.49560547 C58.15512838 34.36721654 62.91203152 37.02671691 67.7890625 39.58203125 C68.94390137 40.21165771 70.09874023 40.84128418 71.28857422 41.48999023 C73.54571059 42.71917276 75.82582993 43.90731897 78.12939453 45.04711914 C82.71589687 47.59713943 85.46831285 49.21828243 87.00976562 54.38378906 C87.33377835 59.09186712 87.47688282 63.16654996 84.41137695 66.97216797 C82.03115597 68.60151397 79.61535397 69.78334514 77 71 C74.93936975 72.18541088 72.88641419 73.38422718 70.83984375 74.59375 C69.13677545 75.56040307 67.43364657 76.52695758 65.72814941 77.48931885 C62.62056315 79.24330756 59.51965351 81.00904066 56.41796875 82.7734375 C55.7904068 83.13009491 55.16284485 83.48675232 54.51626587 83.85421753 C48.5701425 87.23672663 42.65573494 90.67248462 36.75 94.125 C35.31394409 94.96236694 35.31394409 94.96236694 33.84887695 95.81665039 C28.632959 98.86164479 23.43180329 101.92990986 18.2421875 105.01953125 C17.13520508 105.6748584 16.02822266 106.33018555 14.88769531 107.00537109 C12.75025366 108.27113832 10.61662525 109.54337223 8.48730469 110.82275391 C7.53500977 111.38526855 6.58271484 111.9477832 5.6015625 112.52734375 C4.33820068 113.28132446 4.33820068 113.28132446 3.04931641 114.05053711 C2.03490479 114.52052124 2.03490479 114.52052124 1 115 C0.34 114.67 -0.32 114.34 -1 114 C-1.02332994 99.28390435 -1.04097964 84.56781115 -1.05181217 69.85170078 C-1.05697493 63.01921026 -1.06401723 56.18673121 -1.07543945 49.35424805 C-1.08644707 42.76664695 -1.09227623 36.17905469 -1.09487724 29.59144402 C-1.096732 27.07191721 -1.10035357 24.55239109 -1.10573006 22.03286934 C-1.11293676 18.51742235 -1.1139911 15.00202539 -1.11352539 11.48657227 C-1.11712067 10.43353409 -1.12071594 9.38049591 -1.12442017 8.29554749 C-1.12235817 6.86728638 -1.12235817 6.86728638 -1.12025452 5.41017151 C-1.12117631 4.57779244 -1.1220981 3.74541338 -1.12304783 2.88781071 C-1 1 -1 1 0 0 Z " fill="#000000" transform="translate(209,100)"/>
<path d="M0 0 C9.89189376 -0.02312428 19.78378114 -0.04091552 29.67569637 -0.05181217 C34.2684264 -0.05704082 38.861138 -0.06413812 43.45385742 -0.07543945 C47.88233688 -0.086269 52.31079856 -0.09227698 56.73929024 -0.09487724 C58.43265628 -0.09673137 60.12602129 -0.10035175 61.81937981 -0.10573006 C64.18291232 -0.1129414 66.54637045 -0.1139909 68.90991211 -0.11352539 C69.61697296 -0.11712067 70.32403381 -0.12071594 71.05252075 -0.12442017 C75.88594784 -0.11405216 75.88594784 -0.11405216 77 1 C77.09509559 3.61688441 77.12556 6.207289 77.11352539 8.82446289 C77.11367142 9.64390884 77.11381744 10.4633548 77.1139679 11.30763245 C77.11326852 14.02933353 77.10547501 16.75096705 77.09765625 19.47265625 C77.09579216 21.35452741 77.09436821 23.23639906 77.09336853 25.11827087 C77.08954267 30.08148529 77.07971181 35.04467064 77.06866455 40.00787354 C77.0584519 45.06839606 77.05387122 50.12892327 77.04882812 55.18945312 C77.0380896 65.12631488 77.02101236 75.06315503 77 85 C73.55290132 83.65057951 70.40492621 82.18054237 67.2109375 80.3046875 C66.28313477 79.76183105 65.35533203 79.21897461 64.39941406 78.65966797 C63.40135742 78.07072754 62.40330078 77.48178711 61.375 76.875 C59.80057129 75.95098389 59.80057129 75.95098389 58.19433594 75.00830078 C54.79354866 73.01004992 51.39628596 71.00588583 48 69 C46.86401367 68.3296875 45.72802734 67.659375 44.55761719 66.96875 C32.81041018 60.03312963 21.08201238 53.06576389 9.375 46.0625 C8.53356445 45.56024902 7.69212891 45.05799805 6.82519531 44.54052734 C5.6858252 43.85724365 5.6858252 43.85724365 4.5234375 43.16015625 C3.532229 42.56666382 3.532229 42.56666382 2.52099609 41.96118164 C1 41 1 41 0 40 C-0.08868299 37.04294679 -0.11520296 34.10934944 -0.09765625 31.15234375 C-0.0962413 30.2659169 -0.09482635 29.37949005 -0.09336853 28.46620178 C-0.08775215 25.62326746 -0.07519691 22.78041069 -0.0625 19.9375 C-0.05748711 18.01497509 -0.05292384 16.09244896 -0.04882812 14.16992188 C-0.03777741 9.44658451 -0.02050183 4.72330542 0 0 Z " fill="#000000" transform="translate(429,137)"/>
<path d="M0 0 C0 58.41 0 116.82 0 177 C-8.58 177.33 -17.16 177.66 -26 178 C-27.83025826 176.16974174 -27.19055929 173.25736326 -27.23464966 170.79689026 C-27.2474987 170.14155601 -27.26034775 169.48622176 -27.27358615 168.8110289 C-27.31528273 166.59877016 -27.34943608 164.38646387 -27.38330078 162.17407227 C-27.41083002 160.59410761 -27.43856514 159.01414653 -27.4664917 157.43418884 C-27.71218361 142.98033574 -27.85158357 128.52490346 -27.96293831 114.06945896 C-28.03951809 104.34940879 -28.14808462 94.63189716 -28.33740234 84.91333008 C-28.50251169 76.43667609 -28.60749733 67.96179167 -28.64017475 59.48355335 C-28.65943613 54.99645219 -28.70788846 50.51410463 -28.82797623 46.02847481 C-29.52915268 18.73531798 -29.52915268 18.73531798 -25.3373642 12.54444504 C-21.4107687 8.89359077 -17.1231195 7.03159996 -12.0066185 5.60186577 C-9.24289729 4.77291438 -6.94460109 3.38565785 -4.5 1.875 C-1 0 -1 0 0 0 Z " fill="#000000" transform="translate(456,226)"/>
<path d="M0 0 C2 2 2 2 2.24609566 4.69802284 C2.24333028 6.43191545 2.24333028 6.43191545 2.24050903 8.20083618 C2.24221788 8.84366275 2.24392673 9.48648932 2.24568737 10.14879549 C2.24899328 12.3123622 2.23796078 14.4756218 2.22705078 16.63916016 C2.2264869 18.18623345 2.22680277 19.73330727 2.22793579 21.28038025 C2.22851122 25.48885185 2.21672621 29.69721018 2.20278788 33.90565538 C2.19031215 38.30057233 2.18911252 42.69549167 2.18673706 47.09042358 C2.18051298 55.41667602 2.16408965 63.74287614 2.14403808 72.06910551 C2.1217079 81.54659421 2.11069291 91.02408538 2.10064721 100.50159383 C2.0797242 120.00109307 2.04412888 139.50054042 2 159 C-4.6 159 -11.2 159 -18 159 C-18.34760425 139.8591705 -18.61509731 120.71923539 -18.77718258 101.57589817 C-18.85445199 92.68662986 -18.95973478 83.79936129 -19.1315918 74.91137695 C-19.28135859 67.16212889 -19.37792951 59.41432889 -19.41132742 51.66367382 C-19.4308469 47.56081393 -19.47650575 43.46209528 -19.58595085 39.36056709 C-20.22857942 14.34475923 -20.22857942 14.34475923 -16.50447464 8.75544357 C-12.5287216 5.0008256 -8.18628063 3.46484656 -3 2 C-2.01 1.34 -1.02 0.68 0 0 Z " fill="#000000" transform="translate(423,244)"/>
<path d="M0 0 C4.1391216 1.65564864 7.89471976 3.49916667 11.75 5.6875 C12.43481445 6.07413818 13.11962891 6.46077637 13.82519531 6.85913086 C21.26493993 11.09452454 28.57729208 15.54104482 35.90380859 19.96826172 C45.53230761 25.7656469 55.27326297 31.35371685 65.04980469 36.89672852 C66.17547852 37.53537842 67.30115234 38.17402832 68.4609375 38.83203125 C69.45915527 39.39639893 70.45737305 39.9607666 71.48583984 40.54223633 C73.3627042 41.6304823 75.19483451 42.79655634 77 44 C77.22107787 46.7885289 77.28107535 49.34653181 77.1875 52.125 C77.16719727 53.25615234 77.16719727 53.25615234 77.14648438 54.41015625 C77.11109985 56.27374127 77.05729167 58.13695978 77 60 C70.90878006 57.10255484 64.97422543 54.07475182 59.25 50.5 C58.18136719 49.84902344 57.11273438 49.19804687 56.01171875 48.52734375 C53.73657942 47.122234 51.51587307 45.66931892 49.30712891 44.16064453 C38.3897958 35.88322394 38.3897958 35.88322394 25.73974609 31.94628906 C21.06326686 33.05220541 17.63549897 36.01369727 14 39 C11.7920867 40.4002019 9.53213191 41.65649199 7.25 42.9375 C5.80367188 43.81728516 5.80367188 43.81728516 4.328125 44.71484375 C2 46 2 46 0 46 C0 30.82 0 15.64 0 0 Z " fill="#000000" transform="translate(429,183)"/>
<path d="M0 0 C3.63 1.98 7.26 3.96 11 6 C12.69084717 6.87446777 14.38169434 7.74893555 16.1237793 8.64990234 C18.75126824 10.4604717 19.80988169 11.40597313 20.78897095 14.46514893 C21.11149275 17.55081909 21.11759584 20.50069398 21.01953125 23.6015625 C21.01628342 24.71558441 21.01303558 25.82960632 21.00968933 26.97738647 C20.99393929 29.32598332 20.9564627 31.67452215 20.89868164 34.02246094 C20.81260964 37.62041699 20.79617797 41.21360796 20.79101562 44.8125 C20.76710217 47.09640055 20.73924214 49.38026391 20.70703125 51.6640625 C20.69564873 53.27820541 20.69564873 53.27820541 20.68403625 54.92495728 C20.65528915 55.92634735 20.62654205 56.92773743 20.59692383 57.95947266 C20.57866043 58.8385025 20.56039703 59.71753235 20.5415802 60.62319946 C19.70100057 64.31220085 17.30774387 66.08977736 14.29248047 68.18847656 C13.73963379 68.50268555 13.18678711 68.81689453 12.6171875 69.140625 C12.00746094 69.48867187 11.39773438 69.83671875 10.76953125 70.1953125 C10.14433594 70.54335937 9.51914062 70.89140625 8.875 71.25 C8.24207031 71.61351562 7.60914063 71.97703125 6.95703125 72.3515625 C2.2675047 75 2.2675047 75 0 75 C0 50.25 0 25.5 0 0 Z " fill="#000000" transform="translate(405,168)"/>
<path d="M0 0 C7.80575195 -0.02312792 15.61149595 -0.04091738 23.41727352 -0.05181217 C27.0414596 -0.05704002 30.6656223 -0.06413587 34.28979492 -0.07543945 C37.78459975 -0.08627184 41.27938204 -0.09227758 44.77420235 -0.09487724 C46.76239389 -0.09763551 48.75057631 -0.10544688 50.73875427 -0.11329651 C51.93992386 -0.11337204 53.14109344 -0.11344757 54.37866211 -0.11352539 C55.97417152 -0.11685631 55.97417152 -0.11685631 57.60191345 -0.12025452 C60 0 60 0 61 1 C61.11325718 3.41323441 61.16417025 5.79677404 61.16796875 8.2109375 C61.17296135 9.29684677 61.17296135 9.29684677 61.17805481 10.4046936 C61.18312739 11.93971113 61.18546303 13.47473972 61.18530273 15.00976562 C61.18748445 17.35825849 61.20562287 19.70627815 61.22460938 22.0546875 C61.22754419 23.54426922 61.2295284 25.03385318 61.23046875 26.5234375 C61.23765427 27.22665131 61.24483978 27.92986511 61.25224304 28.65438843 C61.23502296 32.33294689 61.09860684 33.85208974 59 37 C45.87430714 29.47394203 32.77307091 21.92036504 19.82226562 14.09570312 C12.94609839 9.94717733 5.99807489 5.93931368 -1 2 C-0.67 1.34 -0.34 0.68 0 0 Z " fill="#000000" transform="translate(364,137)"/>
<path d="M0 0 C1.45744606 6.70695087 2.67078521 13.46357203 0 20 C-5.60085021 25.85974107 -13.52173118 29.03375166 -20.7578125 32.42724609 C-25.61982502 34.78576151 -30.19457039 37.57673775 -34.8125 40.375 C-36.33493047 41.28689922 -37.86187367 42.19133397 -39.39453125 43.0859375 C-40.33582886 43.6435376 -40.33582886 43.6435376 -41.29614258 44.21240234 C-43 45 -43 45 -46 45 C-46.94317411 38.98726505 -47.75606483 32.93304757 -46 27 C-42.20401695 22.85129286 -37.81654733 20.79509005 -32.78857422 18.39306641 C-27.70654211 15.85427502 -22.84965524 12.90437824 -17.9520874 10.03036499 C-14.14275736 7.80604881 -10.30497556 5.63097851 -6.47338867 3.4453125 C-0.57736486 0 -0.57736486 0 0 0 Z " fill="#000000" transform="translate(254,194)"/>
<path d="M0 0 C2.31 0 4.62 0 7 0 C7 1.32 7 2.64 7 4 C8.32 4 9.64 4 11 4 C11.33 3.01 11.66 2.02 12 1 C12 2.65 12 4.3 12 6 C9.69 6 7.38 6 5 6 C5 4.68 5 3.36 5 2 C4.01 2 3.02 2 2 2 C2 3.98 2 5.96 2 8 C0.68 8.33 -0.64 8.66 -2 9 C-2 7.68 -2 6.36 -2 5 C-1.34 5 -0.68 5 0 5 C0 3.35 0 1.7 0 0 Z " fill="#FFFFFF" transform="translate(195,308)"/>
<path d="M0 0 C0.99 0.495 0.99 0.495 2 1 C2 1.99 2 2.98 2 4 C3.98491642 3.73323796 3.98491642 3.73323796 6 3 C6.33 2.01 6.66 1.02 7 0 C8.98 0 10.96 0 13 0 C13 1.98 13 3.96 13 6 C11.58344207 6.0272415 10.16672955 6.04650467 8.75 6.0625 C7.56664062 6.07990234 7.56664062 6.07990234 6.359375 6.09765625 C4.09308998 6.00385306 2.1711105 5.63241063 0 5 C0 3.35 0 1.7 0 0 Z " fill="#C9C9C9" transform="translate(235,306)"/>
<path d="M0 0 C1.2065625 0.0309375 1.2065625 0.0309375 2.4375 0.0625 C2.4375 2.3725 2.4375 4.6825 2.4375 7.0625 C1.4475 7.0625 0.4575 7.0625 -0.5625 7.0625 C-0.5625 7.7225 -0.5625 8.3825 -0.5625 9.0625 C-1.5525 9.0625 -2.5425 9.0625 -3.5625 9.0625 C-3.66015625 2.91015625 -3.66015625 2.91015625 -3.5625 1.0625 C-2.5625 0.0625 -2.5625 0.0625 0 0 Z " fill="#DEDEDE" transform="translate(215.5625,285.9375)"/>
<path d="M0 0 C1.67542976 0.28604898 3.34385343 0.61781233 5 1 C5 2.98 5 4.96 5 7 C3.68 7 2.36 7 1 7 C1 7.66 1 8.32 1 9 C0.34 9 -0.32 9 -1 9 C-1.09765625 2.84765625 -1.09765625 2.84765625 -1 1 C-0.67 0.67 -0.34 0.34 0 0 Z " fill="#E2E2E2" transform="translate(213,340)"/>
<path d="M0 0 C1.98 0 3.96 0 6 0 C6 2.31 6 4.62 6 7 C4.02 7 2.04 7 0 7 C0 4.69 0 2.38 0 0 Z " fill="#B6B6B6" transform="translate(185,354)"/>
<path d="M0 0 C1.98 0 3.96 0 6 0 C6 2.31 6 4.62 6 7 C4.02 7 2.04 7 0 7 C0 4.69 0 2.38 0 0 Z " fill="#BCBCBC" transform="translate(196,353)"/>
<path d="M0 0 C1.66611905 -0.042721 3.33382885 -0.04063832 5 0 C6 1 6 1 6.0625 4.0625 C6.041875 5.031875 6.02125 6.00125 6 7 C3.50907189 8.24546405 2.58919267 7.7767578 0 7 C0 4.69 0 2.38 0 0 Z " fill="#ECECEC" transform="translate(201,319)"/>
<path d="M0 0 C1.65 0 3.3 0 5 0 C6.43088528 2.86177057 5.59991697 4.93375773 5 8 C3.35 8 1.7 8 0 8 C0 5.36 0 2.72 0 0 Z " fill="#C7C7C7" transform="translate(217,360)"/>
<path d="M0 0 C2.5 0.125 2.5 0.125 3.5 1.125 C3.54063832 2.79117115 3.542721 4.45888095 3.5 6.125 C1.19 6.125 -1.12 6.125 -3.5 6.125 C-3.542721 4.45888095 -3.54063832 2.79117115 -3.5 1.125 C-2.5 0.125 -2.5 0.125 0 0 Z " fill="#C5C5C5" transform="translate(244.5,358.875)"/>
<path d="M0 0 C1.65 0 3.3 0 5 0 C5 2.64 5 5.28 5 8 C3.35 8 1.7 8 0 8 C0 5.36 0 2.72 0 0 Z " fill="#E5E5E5" transform="translate(232,339)"/>
<path d="M0 0 C1.65 0 3.3 0 5 0 C5 2.64 5 5.28 5 8 C3.35 8 1.7 8 0 8 C-0.98120464 4.94736336 -0.98120464 3.05263664 0 0 Z " fill="#F8F8F8" transform="translate(187,331)"/>
<path d="M0 0 C1.65 0 3.3 0 5 0 C5 2.64 5 5.28 5 8 C3.35 8 1.7 8 0 8 C0 5.36 0 2.72 0 0 Z " fill="#F2F2F2" transform="translate(187,277)"/>
<path d="M0 0 C0.33 0.99 0.66 1.98 1 3 C2.32 3 3.64 3 5 3 C5 3.99 5 4.98 5 6 C6.65 6 8.3 6 10 6 C10 4.35 10 2.7 10 1 C10.33 1 10.66 1 11 1 C11 3.31 11 5.62 11 8 C8.36 8 5.72 8 3 8 C3 7.01 3 6.02 3 5 C2.34 5 1.68 5 1 5 C0.67 5.66 0.34 6.32 0 7 C0 4.69 0 2.38 0 0 Z " fill="#FFFFFF" transform="translate(178,363)"/>
<path d="M0 0 C1.67542976 0.28604898 3.34385343 0.61781233 5 1 C5 2.65 5 4.3 5 6 C3.34385343 6.38218767 1.67542976 6.71395102 0 7 C-1 6 -1 6 -1.125 3.5 C-1 1 -1 1 0 0 Z " fill="#D6D6D6" transform="translate(207,276)"/>
<path d="M0 0 C0.25 6.625 0.25 6.625 -2 10 C-2.99 9.67 -3.98 9.34 -5 9 C-5 6.69 -5 4.38 -5 2 C-1.125 0 -1.125 0 0 0 Z " fill="#FFFFFF" transform="translate(237,253)"/>
<path d="M0 0 C1.65 0 3.3 0 5 0 C5 2.64 5 5.28 5 8 C3.35 8 1.7 8 0 8 C0 5.36 0 2.72 0 0 Z " fill="#E3E3E3" transform="translate(187,384)"/>
<path d="M0 0 C1.65 0 3.3 0 5 0 C5.33 2.31 5.66 4.62 6 7 C3.50907189 8.24546405 2.58919267 7.7767578 0 7 C0 4.69 0 2.38 0 0 Z " fill="#F8F8F8" transform="translate(242,339)"/>
<path d="M0 0 C1.98 0 3.96 0 6 0 C6 1.98 6 3.96 6 6 C4.02 6.33 2.04 6.66 0 7 C0 4.69 0 2.38 0 0 Z " fill="#D5D5D5" transform="translate(186,300)"/>
<path d="M0 0 C1.65 0 3.3 0 5 0 C5 2.31 5 4.62 5 7 C3.68 7 2.36 7 1 7 C0.67 7.66 0.34 8.32 0 9 C0 6.03 0 3.06 0 0 Z " fill="#F1F1F1" transform="translate(242,251)"/>
<path d="M0 0 C1.98 0 3.96 0 6 0 C6 1.98 6 3.96 6 6 C4.02 6 2.04 6 0 6 C0 4.02 0 2.04 0 0 Z " fill="#E2E2E2" transform="translate(196,383)"/>
<path d="M0 0 C1.98 0 3.96 0 6 0 C6 1.98 6 3.96 6 6 C4.02 6 2.04 6 0 6 C0 4.02 0 2.04 0 0 Z " fill="#B1B1B1" transform="translate(226,352)"/>
<path d="M0 0 C1.2065625 0.0309375 1.2065625 0.0309375 2.4375 0.0625 C2.4375 2.0425 2.4375 4.0225 2.4375 6.0625 C-0.5625 7.0625 -0.5625 7.0625 -3.5625 6.0625 C-3.605221 4.39638095 -3.60313832 2.72867115 -3.5625 1.0625 C-2.5625 0.0625 -2.5625 0.0625 0 0 Z " fill="#D4D4D4" transform="translate(245.5625,315.9375)"/>
<path d="M0 0 C1.65 0 3.3 0 5 0 C5.33 1.98 5.66 3.96 6 6 C4.02 6.33 2.04 6.66 0 7 C0 4.69 0 2.38 0 0 Z " fill="#F0F0F0" transform="translate(212,255)"/>
<path d="M0 0 C1.98 0 3.96 0 6 0 C6 1.98 6 3.96 6 6 C4.02 6 2.04 6 0 6 C0 4.02 0 2.04 0 0 Z " fill="#E2E2E2" transform="translate(236,243)"/>
<path d="M0 0 C1.2065625 0.0309375 1.2065625 0.0309375 2.4375 0.0625 C2.4375 2.0425 2.4375 4.0225 2.4375 6.0625 C0.4575 6.0625 -1.5225 6.0625 -3.5625 6.0625 C-3.605221 4.39638095 -3.60313832 2.72867115 -3.5625 1.0625 C-2.5625 0.0625 -2.5625 0.0625 0 0 Z " fill="#D3D3D3" transform="translate(234.5625,390.9375)"/>
<path d="M0 0 C1.65 0 3.3 0 5 0 C5 2.31 5 4.62 5 7 C3.35 7.33 1.7 7.66 0 8 C0 5.36 0 2.72 0 0 Z " fill="#FFFFFF" transform="translate(232,370)"/>
<path d="M0 0 C1.66611905 -0.042721 3.33382885 -0.04063832 5 0 C6 1 6 1 6.0625 3.5625 C6.041875 4.366875 6.02125 5.17125 6 6 C4.02 6 2.04 6 0 6 C0 4.02 0 2.04 0 0 Z " fill="#E1E1E1" transform="translate(191,343)"/>
<path d="M0 0 C1.98 0 3.96 0 6 0 C6 1.98 6 3.96 6 6 C4.33388095 6.042721 2.66617115 6.04063832 1 6 C0 5 0 5 -0.0625 2.4375 C-0.041875 1.633125 -0.02125 0.82875 0 0 Z " fill="#BDBDBD" transform="translate(206,331)"/>
<path d="M0 0 C1.98 0 3.96 0 6 0 C6.042721 1.66611905 6.04063832 3.33382885 6 5 C5 6 5 6 2.4375 6.0625 C1.2309375 6.0315625 1.2309375 6.0315625 0 6 C0 4.02 0 2.04 0 0 Z " fill="#C4C4C4" transform="translate(219,312)"/>
<path d="M0 0 C1.65 0 3.3 0 5 0 C5 2.31 5 4.62 5 7 C3.35 6.67 1.7 6.34 0 6 C0 4.02 0 2.04 0 0 Z " fill="#E1E1E1" transform="translate(196,331)"/>
<path d="M0 0 C0.33 0 0.66 0 1 0 C1 1.98 1 3.96 1 6 C2.32 6 3.64 6 5 6 C5 4.02 5 2.04 5 0 C5.66 0 6.32 0 7 0 C7 2.64 7 5.28 7 8 C4.69 8 2.38 8 0 8 C-1.43088528 5.13822943 -0.59991697 3.06624227 0 0 Z " fill="#FFFFFF" transform="translate(201,341)"/>
<path d="M0 0 C1.98 0 3.96 0 6 0 C6 1.65 6 3.3 6 5 C2.25 6.125 2.25 6.125 0 5 C0 3.35 0 1.7 0 0 Z " fill="#D0D0D0" transform="translate(176,334)"/>
<path d="M0 0 C2.475 0.495 2.475 0.495 5 1 C5 2.98 5 4.96 5 7 C3.35 7 1.7 7 0 7 C0 4.69 0 2.38 0 0 Z " fill="#EFEFEF" transform="translate(212,319)"/>
<path d="M0 0 C1.67542976 0.28604898 3.34385343 0.61781233 5 1 C5 2.65 5 4.3 5 6 C3.02 6 1.04 6 -1 6 C-1.042721 4.33388095 -1.04063832 2.66617115 -1 1 C-0.67 0.67 -0.34 0.34 0 0 Z " fill="#D0D0D0" transform="translate(192,320)"/>
<path d="M0 0 C0.66 0 1.32 0 2 0 C2 0.99 2 1.98 2 3 C2.66 3 3.32 3 4 3 C4 2.01 4 1.02 4 0 C4.66 0 5.32 0 6 0 C6 1.98 6 3.96 6 6 C4.34385343 6.38218767 2.67542976 6.71395102 1 7 C0 6 0 6 -0.0625 2.9375 C-0.041875 1.968125 -0.02125 0.99875 0 0 Z " fill="#FFFFFF" transform="translate(171,290)"/>
<path d="M0 0 C1.65 0 3.3 0 5 0 C5 1.98 5 3.96 5 6 C3.35 6 1.7 6 0 6 C-1.125 2.25 -1.125 2.25 0 0 Z " fill="#C7C7C7" transform="translate(182,396)"/>
<path d="M0 0 C1.65 0 3.3 0 5 0 C5 1.98 5 3.96 5 6 C3.35 6.33 1.7 6.66 0 7 C0 4.69 0 2.38 0 0 Z " fill="#FFFFFF" transform="translate(212,372)"/>
<path d="M0 0 C1.65 0 3.3 0 5 0 C5 1.98 5 3.96 5 6 C3.35 6 1.7 6 0 6 C-1.125 2.25 -1.125 2.25 0 0 Z " fill="#BFBFBF" transform="translate(227,298)"/>
<path d="M0 0 C1.98 0 3.96 0 6 0 C6 1.65 6 3.3 6 5 C3.50907189 6.24546405 2.58919267 5.7767578 0 5 C0 3.35 0 1.7 0 0 Z " fill="#CDCDCD" transform="translate(181,375)"/>
<path d="M0 0 C1.65 0.33 3.3 0.66 5 1 C5 2.65 5 4.3 5 6 C4.01 6.495 4.01 6.495 3 7 C3 6.34 3 5.68 3 5 C1.68 5 0.36 5 -1 5 C-0.67 3.35 -0.34 1.7 0 0 Z " fill="#EEEEEE" transform="translate(202,373)"/>
<path d="M0 0 C1.2065625 0.0309375 1.2065625 0.0309375 2.4375 0.0625 C2.4375 2.0425 2.4375 4.0225 2.4375 6.0625 C0.7875 6.0625 -0.8625 6.0625 -2.5625 6.0625 C-2.94468767 4.40635343 -3.27645102 2.73792976 -3.5625 1.0625 C-2.5625 0.0625 -2.5625 0.0625 0 0 Z " fill="#B4B4B4" transform="translate(221.5625,247.9375)"/>
<path d="M0 0 C1.65 0 3.3 0 5 0 C5 1.98 5 3.96 5 6 C3.35 6 1.7 6 0 6 C0 4.02 0 2.04 0 0 Z " fill="#C3C3C3" transform="translate(207,383)"/>
<path d="M0 0 C1.98 0 3.96 0 6 0 C6 1.65 6 3.3 6 5 C4.02 5 2.04 5 0 5 C0 3.35 0 1.7 0 0 Z " fill="#C3C3C3" transform="translate(222,323)"/>
<path d="M0 0 C1.98 0 3.96 0 6 0 C6 1.65 6 3.3 6 5 C4.02 5 2.04 5 0 5 C0 3.35 0 1.7 0 0 Z " fill="#DDDDDD" transform="translate(181,321)"/>
<path d="M0 0 C1.65 0 3.3 0 5 0 C5 1.98 5 3.96 5 6 C3.35 6 1.7 6 0 6 C0 4.02 0 2.04 0 0 Z " fill="#BBBBBB" transform="translate(222,288)"/>
<path d="M0 0 C0.33 0 0.66 0 1 0 C1 1.98 1 3.96 1 6 C2.32 6 3.64 6 5 6 C5 4.02 5 2.04 5 0 C5.66 0.33 6.32 0.66 7 1 C7.04254356 2.99954746 7.04080783 5.00041636 7 7 C6 8 6 8 2.9375 8.0625 C1.968125 8.041875 0.99875 8.02125 0 8 C0 5.36 0 2.72 0 0 Z " fill="#FFFFFF" transform="translate(201,287)"/>
<path d="M0 0 C1.65 0 3.3 0 5 0 C5 1.98 5 3.96 5 6 C3.35 6 1.7 6 0 6 C0 4.02 0 2.04 0 0 Z " fill="#D4D4D4" transform="translate(196,277)"/>
<path d="M0 0 C1.65 0 3.3 0 5 0 C5 1.65 5 3.3 5 5 C3.35 5.33 1.7 5.66 0 6 C0 4.02 0 2.04 0 0 Z " fill="#D3D3D3" transform="translate(217,383)"/>
<path d="M0 0 C1.65 0 3.3 0 5 0 C5 1.65 5 3.3 5 5 C3.35 5.33 1.7 5.66 0 6 C0 4.02 0 2.04 0 0 Z " fill="#DBDBDB" transform="translate(182,344)"/>
<path d="M0 0 C1.32 0 2.64 0 4 0 C4 1.98 4 3.96 4 6 C2.35 6 0.7 6 -1 6 C-1.042721 4.33388095 -1.04063832 2.66617115 -1 1 C-0.67 0.67 -0.34 0.34 0 0 Z " fill="#E4E4E4" transform="translate(223,341)"/>
<path d="M0 0 C1.65 0 3.3 0 5 0 C5 1.65 5 3.3 5 5 C3.35 5.33 1.7 5.66 0 6 C0 4.02 0 2.04 0 0 Z " fill="#B8B8B8" transform="translate(182,290)"/>
<path d="M0 0 C1.65 0 3.3 0 5 0 C5 1.65 5 3.3 5 5 C3.35 5.33 1.7 5.66 0 6 C0 4.02 0 2.04 0 0 Z " fill="#CACACA" transform="translate(192,267)"/>
<path d="M0 0 C1.65 0 3.3 0 5 0 C5.38218767 1.65614657 5.71395102 3.32457024 6 5 C5 6 5 6 2.4375 6.0625 C1.2309375 6.0315625 1.2309375 6.0315625 0 6 C0 4.02 0 2.04 0 0 Z " fill="#FFFFFF" transform="translate(222,372)"/>
<path d="M0 0 C1.2065625 0.0309375 1.2065625 0.0309375 2.4375 0.0625 C2.4375 0.7225 2.4375 1.3825 2.4375 2.0625 C1.1175 2.0625 -0.2025 2.0625 -1.5625 2.0625 C-1.5625 4.0425 -1.5625 6.0225 -1.5625 8.0625 C-0.5725 8.3925 0.4175 8.7225 1.4375 9.0625 C-0.2125 9.0625 -1.8625 9.0625 -3.5625 9.0625 C-3.66015625 2.91015625 -3.66015625 2.91015625 -3.5625 1.0625 C-2.5625 0.0625 -2.5625 0.0625 0 0 Z " fill="#FFFFFF" transform="translate(209.5625,359.9375)"/>
<path d="M0 0 C1.65 0 3.3 0 5 0 C5 1.65 5 3.3 5 5 C3.0625 5.5625 3.0625 5.5625 1 6 C0 5 0 5 -0.0625 2.4375 C-0.041875 1.633125 -0.02125 0.82875 0 0 Z " fill="#E3E3E3" transform="translate(217,267)"/>
<path d="M0 0 C1.65 0 3.3 0 5 0 C5 1.98 5 3.96 5 6 C3.35 5.67 1.7 5.34 0 5 C0 3.35 0 1.7 0 0 Z " fill="#D1D1D1" transform="translate(207,267)"/>
<path d="M0 0 C1.65 0 3.3 0 5 0 C5 2.31 5 4.62 5 7 C3.35 7 1.7 7 0 7 C0 6.01 0 5.02 0 4 C1.32 4 2.64 4 4 4 C4 3.34 4 2.68 4 2 C2.68 2 1.36 2 0 2 C0 1.34 0 0.68 0 0 Z " fill="#FFFFFF" transform="translate(232,286)"/>
<path d="M0 0 C1.2065625 0.0309375 1.2065625 0.0309375 2.4375 0.0625 C2.4375 2.0425 2.4375 4.0225 2.4375 6.0625 C1.7775 6.0625 1.1175 6.0625 0.4375 6.0625 C0.4375 4.7425 0.4375 3.4225 0.4375 2.0625 C-0.5525 2.5575 -0.5525 2.5575 -1.5625 3.0625 C-1.5625 4.0525 -1.5625 5.0425 -1.5625 6.0625 C-2.2225 6.0625 -2.8825 6.0625 -3.5625 6.0625 C-3.605221 4.39638095 -3.60313832 2.72867115 -3.5625 1.0625 C-2.5625 0.0625 -2.5625 0.0625 0 0 Z " fill="#FFFFFF" transform="translate(239.5625,296.9375)"/>
<path d="M0 0 C1.98 0 3.96 0 6 0 C4.68 0.33 3.36 0.66 2 1 C2 2.32 2 3.64 2 5 C3.32 5 4.64 5 6 5 C6 5.66 6 6.32 6 7 C4.02 7 2.04 7 0 7 C0 4.69 0 2.38 0 0 Z " fill="#FFFFFF" transform="translate(227,276)"/>
<path d="M0 0 C2.31 0 4.62 0 7 0 C7 2.64 7 5.28 7 8 C6.34 8 5.68 8 5 8 C5 6.02 5 4.04 5 2 C3.35 2 1.7 2 0 2 C0 1.34 0 0.68 0 0 Z " fill="#FFFFFF" transform="translate(226,243)"/>
<path d="M0 0 C1.65 0 3.3 0 5 0 C5 1.65 5 3.3 5 5 C3.35 5 1.7 5 0 5 C0 3.35 0 1.7 0 0 Z " fill="#C1C1C1" transform="translate(217,331)"/>
<path d="M0 0 C1.98 0 3.96 0 6 0 C6 1.98 6 3.96 6 6 C5.34 5.67 4.68 5.34 4 5 C4.33 4.01 4.66 3.02 5 2 C4.01 2 3.02 2 2 2 C2 3.32 2 4.64 2 6 C1.34 6 0.68 6 0 6 C0 4.02 0 2.04 0 0 Z " fill="#FFFFFF" transform="translate(196,299)"/>
<path d="M0 0 C1.98 0 3.96 0 6 0 C4.68 0.33 3.36 0.66 2 1 C2 2.32 2 3.64 2 5 C3.32 5 4.64 5 6 5 C6 5.66 6 6.32 6 7 C4.33388095 7.042721 2.66617115 7.04063832 1 7 C0 6 0 6 -0.0625 2.9375 C-0.041875 1.968125 -0.02125 0.99875 0 0 Z " fill="#FFFFFF" transform="translate(241,285)"/>
<path d="M0 0 C0.99 0.33 1.98 0.66 3 1 C3.66 0.67 4.32 0.34 5 0 C5 1.98 5 3.96 5 6 C3.35 6 1.7 6 0 6 C0 4.02 0 2.04 0 0 Z " fill="#FFFFFF" transform="translate(171,396)"/>
<path d="M0 0 C0.66 0 1.32 0 2 0 C2 0.99 2 1.98 2 3 C2.99 3 3.98 3 5 3 C5 2.34 5 1.68 5 1 C5.66 1 6.32 1 7 1 C7 2.32 7 3.64 7 5 C4.69 5 2.38 5 0 5 C0 3.35 0 1.7 0 0 Z " fill="#FFFFFF" transform="translate(210,309)"/>
<path d="M0 0 C2.475 0.495 2.475 0.495 5 1 C5 2.98 5 4.96 5 7 C4.67 6.01 4.34 5.02 4 4 C3.34 4 2.68 4 2 4 C2 4.66 2 5.32 2 6 C1.34 6 0.68 6 0 6 C0 4.02 0 2.04 0 0 Z " fill="#FFFFFF" transform="translate(176,301)"/>
<path d="M0 0 C0.66 0 1.32 0 2 0 C2 2.31 2 4.62 2 7 C2.99 7.33 3.98 7.66 5 8 C5 8.33 5 8.66 5 9 C3.35 9 1.7 9 0 9 C0 6.03 0 3.06 0 0 Z " fill="#FFFFFF" transform="translate(174,373)"/>
<path d="M0 0 C0.33 0.66 0.66 1.32 1 2 C2.32 2 3.64 2 5 2 C5 3.32 5 4.64 5 6 C3.35 6 1.7 6 0 6 C-0.38218767 4.34385343 -0.71395102 2.67542976 -1 1 C-0.67 0.67 -0.34 0.34 0 0 Z " fill="#FFFFFF" transform="translate(242,369)"/>
<path d="M0 0 C1.65 0 3.3 0 5 0 C5 2.31 5 4.62 5 7 C3.35 7 1.7 7 0 7 C0.99 6.67 1.98 6.34 3 6 C3 4.68 3 3.36 3 2 C2.01 2 1.02 2 0 2 C0 1.34 0 0.68 0 0 Z " fill="#FFFFFF" transform="translate(237,327)"/>
<path d="M0 0 C0.33 1.32 0.66 2.64 1 4 C1.99 4 2.98 4 4 4 C4.33 2.68 4.66 1.36 5 0 C6 1 6 1 6.0625 3.5625 C6.041875 4.366875 6.02125 5.17125 6 6 C4.02 6 2.04 6 0 6 C0 4.02 0 2.04 0 0 Z " fill="#FFFFFF" transform="translate(184,311)"/>
<path d="M0 0 C0.66 0 1.32 0 2 0 C2 2.31 2 4.62 2 7 C0.35 7 -1.3 7 -3 7 C-3 6.01 -3 5.02 -3 4 C-2.01 4 -1.02 4 0 4 C0 2.68 0 1.36 0 0 Z " fill="#FFFFFF" transform="translate(195,288)"/>
<path d="M0 0 C1.32 0.33 2.64 0.66 4 1 C3.34 1 2.68 1 2 1 C2 1.99 2 2.98 2 4 C3.32 4 4.64 4 6 4 C6 4.66 6 5.32 6 6 C4.02 6 2.04 6 0 6 C0 4.02 0 2.04 0 0 Z " fill="#FFFFFF" transform="translate(211,394)"/>
<path d="M0 0 C0 1.65 0 3.3 0 5 C-0.99 5.495 -0.99 5.495 -2 6 C-2 4.68 -2 3.36 -2 2 C-3.65 2 -5.3 2 -7 2 C-7 1.34 -7 0.68 -7 0 C-2.25 -1.125 -2.25 -1.125 0 0 Z " fill="#FFFFFF" transform="translate(234,308)"/>
<path d="M0 0 C1.98 0 3.96 0 6 0 C6 0.66 6 1.32 6 2 C4.68 2 3.36 2 2 2 C2 2.66 2 3.32 2 4 C3.32 4.33 4.64 4.66 6 5 C4.02 5 2.04 5 0 5 C0 3.35 0 1.7 0 0 Z " fill="#FFFFFF" transform="translate(222,257)"/>
<path d="M0 0 C1.2065625 0.0309375 1.2065625 0.0309375 2.4375 0.0625 C2.1075 0.7225 1.7775 1.3825 1.4375 2.0625 C0.4475 2.0625 -0.5425 2.0625 -1.5625 2.0625 C-1.5625 3.0525 -1.5625 4.0425 -1.5625 5.0625 C-0.2425 5.3925 1.0775 5.7225 2.4375 6.0625 C0.4575 6.0625 -1.5225 6.0625 -3.5625 6.0625 C-3.605221 4.39638095 -3.60313832 2.72867115 -3.5625 1.0625 C-2.5625 0.0625 -2.5625 0.0625 0 0 Z " fill="#FFFFFF" transform="translate(204.5625,393.9375)"/>
<path d="M0 0 C1.65 0 3.3 0 5 0 C5 0.66 5 1.32 5 2 C4.01 2 3.02 2 2 2 C2 2.66 2 3.32 2 4 C3.32 4.33 4.64 4.66 6 5 C4.02 5.33 2.04 5.66 0 6 C0 4.02 0 2.04 0 0 Z " fill="#FFFFFF" transform="translate(207,299)"/>
<path d="M0 0 C0.66 0 1.32 0 2 0 C2 0.99 2 1.98 2 3 C3.65 3 5.3 3 7 3 C7 3.66 7 4.32 7 5 C4.69 5 2.38 5 0 5 C0 3.35 0 1.7 0 0 Z " fill="#FFFFFF" transform="translate(226,383)"/>
<path d="M0 0 C0.66 0 1.32 0 2 0 C2 1.32 2 2.64 2 4 C3.32 4 4.64 4 6 4 C6 4.66 6 5.32 6 6 C4.02 6 2.04 6 0 6 C0 4.02 0 2.04 0 0 Z " fill="#FFFFFF" transform="translate(175,355)"/>
<path d="M0 0 C0.66 0 1.32 0 2 0 C2 0.99 2 1.98 2 3 C3.65 3 5.3 3 7 3 C7 3.66 7 4.32 7 5 C4.69 5 2.38 5 0 5 C0 3.35 0 1.7 0 0 Z " fill="#FFFFFF" transform="translate(226,331)"/>
<path d="M0 0 C1.32 0 2.64 0 4 0 C4 2.31 4 4.62 4 7 C3.01 7 2.02 7 1 7 C1.33 5.35 1.66 3.7 2 2 C1.34 2 0.68 2 0 2 C0 1.34 0 0.68 0 0 Z " fill="#FFFFFF" transform="translate(237,274)"/>
<path d="M0 0 C0.66 0 1.32 0 2 0 C2 1.98 2 3.96 2 6 C0.35 6.33 -1.3 6.66 -3 7 C-3 6.01 -3 5.02 -3 4 C-2.01 4 -1.02 4 0 4 C0 2.68 0 1.36 0 0 Z " fill="#FFFFFF" transform="translate(225,392)"/>
<path d="M0 0 C1.32 0.99 2.64 1.98 4 3 C4.33 2.01 4.66 1.02 5 0 C5 1.98 5 3.96 5 6 C3.35 6 1.7 6 0 6 C0 4.02 0 2.04 0 0 Z " fill="#FFFFFF" transform="translate(191,373)"/>
<path d="M0 0 C0.66 0 1.32 0 2 0 C2 0.99 2 1.98 2 3 C3.65 3.33 5.3 3.66 7 4 C7 4.33 7 4.66 7 5 C4.69 5 2.38 5 0 5 C0 3.35 0 1.7 0 0 Z " fill="#FFFFFF" transform="translate(226,267)"/>
<path d="M0 0 C0.99 1.485 0.99 1.485 2 3 C2.66 2.67 3.32 2.34 4 2 C4 3.65 4 5.3 4 7 C3.01 6.67 2.02 6.34 1 6 C0.67 6.66 0.34 7.32 0 8 C0 5.36 0 2.72 0 0 Z " fill="#FFFFFF" transform="translate(247,327)"/>
<path d="M0 0 C1.65 0 3.3 0 5 0 C5.33 1.98 5.66 3.96 6 6 C4.35 6.33 2.7 6.66 1 7 C1 6.34 1 5.68 1 5 C1.99 5 2.98 5 4 5 C4 3.68 4 2.36 4 1 C2.68 0.67 1.36 0.34 0 0 Z " fill="#FFFFFF" transform="translate(232,317)"/>
<path d="M0 0 C0.33 0 0.66 0 1 0 C1 2.31 1 4.62 1 7 C-1.97 6.505 -1.97 6.505 -5 6 C-4.67 5.34 -4.34 4.68 -4 4 C-2.68 4 -1.36 4 0 4 C0 2.68 0 1.36 0 0 Z " fill="#FFFFFF" transform="translate(181,385)"/>
<path d="M0 0 C0 1.65 0 3.3 0 5 C-0.99 5.495 -0.99 5.495 -2 6 C-2 5.01 -2 4.02 -2 3 C-2.99 3 -3.98 3 -5 3 C-5 2.34 -5 1.68 -5 1 C-2 0 -2 0 0 0 Z " fill="#FFFFFF" transform="translate(242,380)"/>
<path d="M0 0 C1.32 0 2.64 0 4 0 C4 0.66 4 1.32 4 2 C3.01 2 2.02 2 1 2 C1 3.32 1 4.64 1 6 C0.34 6 -0.32 6 -1 6 C-1.042721 4.33388095 -1.04063832 2.66617115 -1 1 C-0.67 0.67 -0.34 0.34 0 0 Z " fill="#FFFFFF" transform="translate(171,363)"/>
</svg>
